<?xml version="1.0" encoding="utf-8" standalone="yes"?>
<!DOCTYPE svg PUBLIC "-//W3C//DTD SVG 1.1//EN" "http://www.w3.org/Graphics/SVG/1.1/DTD/svg11.dtd">
<svg width="758" height="554" viewBox="0 0 758 554" style="fill:none;stroke:none;fill-rule:evenodd;clip-rule:evenodd;stroke-linecap:round;stroke-linejoin:round;stroke-miterlimit:1.5;" version="1.1" xmlns="http://www.w3.org/2000/svg" xmlns:xlink="http://www.w3.org/1999/xlink"><style class="text-font-style fontImports" data-font-family="Roboto">@import url('https://fonts.googleapis.com/css2?family=Roboto:wght@400;700&amp;display=block');</style><rect id="" x="0" y="0" width="758" height="554" style="fill: #ffffff;"></rect><g id="items" style="isolation: isolate"><g id="blend" style="mix-blend-mode: normal"><g id="g-root-tf_147zfb41nza61b-fill" data-item-order="-417312" transform="translate(-9, -9)"><g id="tf_147zfb41nza61b-fill" stroke="none" fill="#ffffff"><g><path d="M 10 10L 766 10L 766 562L 10 562Z"></path></g></g></g><g id="g-root--1.cu_sy_142d5j41nz33t9-fill" data-item-order="-120954" transform="translate(266, 201)"><g id="-1.cu_sy_142d5j41nz33t9-fill" stroke="none" fill="#f5f5f5"><g><path d="M 125 34L 101 10L 10 166L 34 190L 125 34ZM 125 34L 34 190L 216 190L 125 34Z"></path></g></g></g><g id="g-root-0.line-start_sy_qqwn5s1nz35e6-fill" data-item-order="-120949" transform="translate(225, 302.99993896484375)"></g><g id="g-root-5.line_sy_mbpm4g1nz330n-fill" data-item-order="-120943" transform="translate(335.5, 302.99993896484375)"></g><g id="g-root-4.line_sy_mbpm4g1nz330o-fill" data-item-order="-120937" transform="translate(335.5, 302.99993896484375)"></g><g id="g-root-3.line_sy_hvw4001nz33sx-fill" data-item-order="-120931" transform="translate(336, 302.9998779296875)"></g><g id="g-root-2.line_sy_hvw4001nz33sy-fill" data-item-order="-120925" transform="translate(335.5, 219.5)"></g><g id="g-root-1.line_sy_9093r41nz34ln-fill" data-item-order="-120919" transform="translate(335.5, 135)"></g><g id="g-root-uiki_8zmmo01nza4g9-fill" data-item-order="0" transform="translate(603, 111)"></g><g id="g-root-tx__zqwz0g1nza4nd-fill" data-item-order="0" transform="translate(663, 123)"><g id="tx__zqwz0g1nza4nd-fill" stroke="none" fill="#484848"><g><text style="font: 20px Roboto, sans-serif; white-space: pre;" font-size="20px" font-family="Roboto, sans-serif"><tspan x="12" y="33.5" dominant-baseline="ideographic">큐비트</tspan></text></g></g></g><g id="g-root-colu_m7caio1nza4uk-fill" data-item-order="0" transform="translate(603, 195)"></g><g id="g-root-tx__146qh4w1nza3v3-fill" data-item-order="0" transform="translate(663, 207)"><g id="tx__146qh4w1nza3v3-fill" stroke="none" fill="#484848"><g><text style="font: 20px Roboto, sans-serif; white-space: pre;" font-size="20px" font-family="Roboto, sans-serif"><tspan x="12" y="33.5" dominant-baseline="ideographic">중첩</tspan></text></g></g></g><g id="g-root-tx__1ut10sg1nza3uu-fill" data-item-order="0" transform="translate(15, 291)"><g id="tx__1ut10sg1nza3uu-fill" stroke="none" fill="#484848"><g><text style="font: 20px Roboto, sans-serif; white-space: pre;" font-size="20px" font-family="Roboto, sans-serif"><tspan x="20.95" y="33.5" dominant-baseline="ideographic">양자 컴퓨팅 개념</tspan></text></g></g></g><g id="g-root-qual_4kflmo1nz35dw-fill" data-item-order="0" transform="translate(171, 279)"></g><g id="g-root-2_v6q5a81nz5yix-fill" data-item-order="0" transform="translate(603, 279)"></g><g id="g-root-tx__1d1r0ao1nza684-fill" data-item-order="0" transform="translate(663, 291)"><g id="tx__1d1r0ao1nza684-fill" stroke="none" fill="#484848"><g><text style="font: 20px Roboto, sans-serif; white-space: pre;" font-size="20px" font-family="Roboto, sans-serif"><tspan x="12" y="33.5" dominant-baseline="ideographic">얽힘</tspan></text></g></g></g><g id="g-root-filt_1ha2tds1nz5y4s-fill" data-item-order="0" transform="translate(603, 363)"></g><g id="g-root-tx__1hhkif41nza5fu-fill" data-item-order="0" transform="translate(663, 375)"><g id="tx__1hhkif41nza5fu-fill" stroke="none" fill="#484848"><g><text style="font: 20px Roboto, sans-serif; white-space: pre;" font-size="20px" font-family="Roboto, sans-serif"><tspan x="12" y="33.5" dominant-baseline="ideographic">터널링</tspan></text></g></g></g><g id="g-root-arro_1uljbr41nz5wju-fill" data-item-order="0" transform="translate(603, 447)"></g><g id="g-root-tx__1qd7io01nza4n4-fill" data-item-order="0" transform="translate(663, 459)"><g id="tx__1qd7io01nza4n4-fill" stroke="none" fill="#484848"><g><text style="font: 20px Roboto, sans-serif; white-space: pre;" font-size="20px" font-family="Roboto, sans-serif"><tspan x="12" y="33.5" dominant-baseline="ideographic">결맞음</tspan></text></g></g></g><g id="g-root-tf_147zfb41nza61b-stroke" data-item-order="-417312" transform="translate(-9, -9)"></g><g id="g-root--1.cu_sy_142d5j41nz33t9-stroke" data-item-order="-120954" transform="translate(266, 201)"><g id="-1.cu_sy_142d5j41nz33t9-stroke" fill="none" stroke-linecap="round" stroke-linejoin="round" stroke-miterlimit="4" stroke="#969696" stroke-width="2"><g><path d="M 125 34L 101 10L 10 166L 34 190L 125 34ZM 125 34L 34 190L 216 190L 125 34Z"></path></g></g></g><g id="g-root-0.line-start_sy_qqwn5s1nz35e6-stroke" data-item-order="-120949" transform="translate(225, 302.99993896484375)"><g id="0.line-start_sy_qqwn5s1nz35e6-stroke" fill="none" stroke-linecap="round" stroke-linejoin="round" stroke-miterlimit="4" stroke="#969696" stroke-width="2"><g><path d="M 10 10L 120.5 10"></path></g></g></g><g id="g-root-5.line_sy_mbpm4g1nz330n-stroke" data-item-order="-120943" transform="translate(335.5, 302.99993896484375)"><g id="5.line_sy_mbpm4g1nz330n-stroke" fill="none" stroke-linecap="round" stroke-linejoin="round" stroke-miterlimit="4" stroke="#de8431" stroke-width="2"><g><path d="M 258.08 176.590061L 115 34.000061L 10 10.000061"></path><path d="M 249.2 177.000061L 258.4 176.900061L 258.4 167.700061" stroke-dasharray="none"></path></g></g></g><g id="g-root-4.line_sy_mbpm4g1nz330o-stroke" data-item-order="-120937" transform="translate(335.5, 302.99993896484375)"><g id="4.line_sy_mbpm4g1nz330o-stroke" fill="none" stroke-linecap="round" stroke-linejoin="round" stroke-miterlimit="4" stroke="#e0cb15" stroke-width="2"><g><path d="M 257.7 93.640061L 108 22.000061L 10 10.000061"></path><path d="M 249.5 96.900061L 258.1 93.900061L 255.1 85.200061" stroke-dasharray="none"></path></g></g></g><g id="g-root-3.line_sy_hvw4001nz33sx-stroke" data-item-order="-120931" transform="translate(336, 302.9998779296875)"><g id="3.line_sy_hvw4001nz33sx-stroke" fill="none" stroke-linecap="round" stroke-linejoin="round" stroke-miterlimit="4" stroke="#92bd39" stroke-width="2"><g><path d="M 257 10.000122L 100.5 10.000122L 10 10.000122"></path><path d="M 251 16.500122L 257.5 10.000122L 251 3.500122" stroke-dasharray="none"></path></g></g></g><g id="g-root-2.line_sy_hvw4001nz33sy-stroke" data-item-order="-120925" transform="translate(335.5, 219.5)"><g id="2.line_sy_hvw4001nz33sy-stroke" fill="none" stroke-linecap="round" stroke-linejoin="round" stroke-miterlimit="4" stroke="#3cc583" stroke-width="2"><g><path d="M 257.66 10.789978L 94 81.499978L 10 93.499978"></path><path d="M 254.7 19.089978L 258.1 10.589978L 249.6 7.189978" stroke-dasharray="none"></path></g></g></g><g id="g-root-1.line_sy_9093r41nz34ln-stroke" data-item-order="-120919" transform="translate(335.5, 135)"><g id="1.line_sy_9093r41nz34ln-stroke" fill="none" stroke-linecap="round" stroke-linejoin="round" stroke-miterlimit="4" stroke="#1eabda" stroke-width="2"><g><path d="M 10 178.000029L 87 154.000029L 257.96 11.280029"></path><path d="M 257.5 20.080029L 258.3 10.980029L 249.2 10.180029" stroke-dasharray="none"></path></g></g></g><g id="g-root-tx__1qf2xxc1nza3np-stroke" data-item-order="0" transform="translate(267, 27)"></g><g id="g-root-uiki_8zmmo01nza4g9-stroke" data-item-order="0" transform="translate(603, 111)"><g id="uiki_8zmmo01nza4g9-stroke" fill="none" stroke-linecap="round" stroke-linejoin="round" stroke-miterlimit="4" stroke="#1eabda" stroke-width="2"><g><path d="M 47.139999 18.58L 39.279999 23.119999L 46.060001 27.040001L 46.060001 40.959999L 34 47.919998L 21.939999 40.959999L 21.939999 30.799999L 14.08 26.26L 14.08 45.5L 34 57L 53.919998 45.5L 53.919998 22.5L 47.139999 18.58ZM 26.139999 15.54L 34 20.08L 41.860001 15.54L 34 11L 26.139999 15.54Z"></path></g></g></g><g id="g-root-tx__zqwz0g1nza4nd-stroke" data-item-order="0" transform="translate(663, 123)"></g><g id="g-root-colu_m7caio1nza4uk-stroke" data-item-order="0" transform="translate(603, 195)"><g id="colu_m7caio1nza4uk-stroke" fill="none" stroke-linecap="round" stroke-linejoin="round" stroke-miterlimit="4" stroke="#3cc583" stroke-width="2"><g><path d="M 25.5 11.5L 11.5 11.5L 11.5 56.5L 25.5 56.5L 25.5 11.5ZM 11.5 26.300039L 25.5 26.300039M 11.5 41.5L 25.5 41.5M 56.5 11.5L 42.5 11.5L 42.5 56.5L 56.5 56.5L 56.5 11.5ZM 42.5 26.300039L 56.5 26.300039M 42.5 41.5L 56.5 41.5M 30.1 46.900002L 37.700001 46.900002M 10 10M 33.700001 42.900002L 37.700001 46.900002L 33.700001 50.900002M 30.1 20.8999L 37.700001 20.8999M 10 10M 33.700001 16.8999L 37.700001 20.8999L 33.700001 24.8999"></path></g></g></g><g id="g-root-tx__146qh4w1nza3v3-stroke" data-item-order="0" transform="translate(663, 207)"></g><g id="g-root-tx__1ut10sg1nza3uu-stroke" data-item-order="0" transform="translate(15, 291)"></g><g id="g-root-qual_4kflmo1nz35dw-stroke" data-item-order="0" transform="translate(171, 279)"><g id="qual_4kflmo1nz35dw-stroke" fill="none" stroke-linecap="round" stroke-linejoin="round" stroke-miterlimit="4" stroke="#484848" stroke-width="2"><g><path d="M 54 31C 54 19.954306 45.045696 11.000001 34 11.000001C 22.954306 11.000001 14 19.954306 14 31C 14 42.045696 22.954306 51 34 51C 36.092659 50.986809 38.170639 50.649475 40.16 50L 42.740002 56.34C 42.896141 56.720207 43.269024 56.966152 43.68 56.959999L 46.52 56.959999C 46.849979 56.960739 47.158176 56.795368 47.34 56.52C 47.489677 56.224541 47.489677 55.875454 47.339996 55.579998L 44.259998 48.060001C 50.268211 44.469444 53.962223 37.999233 54 31ZM 42.299999 43L 39.260002 35.540001C 39.103859 35.15979 38.730972 34.913849 38.32 34.919998L 35.48 34.919998C 35.150021 34.919258 34.841827 35.084633 34.66 35.360001C 34.477962 35.639206 34.440777 35.988743 34.559998 36.299995L 38.220001 45.220001C 36.866356 45.712345 35.440201 45.975948 34 46C 25.994686 45.717674 19.730221 39.005745 20 31C 19.730221 22.994255 25.994686 16.282326 34 16C 42.005314 16.282326 48.269779 22.994255 48 31C 48.044868 35.685928 45.945393 40.135338 42.299999 43.080002Z"></path></g></g></g><g id="g-root-2_v6q5a81nz5yix-stroke" data-item-order="0" transform="translate(603, 279)"><g id="2_v6q5a81nz5yix-stroke" fill="none" stroke-linecap="round" stroke-linejoin="round" stroke-miterlimit="4" stroke="#92bd39" stroke-width="2"><g><path d="M 13.5 25.1001L 25.099979 25.1001C 26.29998 25.1001 27.099979 24.3001 27.099979 23.1001L 27.099979 21.1001C 27.099979 19.900101 26.29998 19.1001 25.099979 19.1001L 13.5 19.1001C 12.3 19.1001 11.5 19.900101 11.5 21.1001L 11.5 23.1001C 11.5 24.1001 12.5 25.1001 13.5 25.1001ZM 14.5 19.1L 14.5 11.5M 24.099979 19.1L 24.099979 11.5M 42.900002 25.1001L 54.5 25.1001C 55.700001 25.1001 56.5 24.3001 56.5 23.1001L 56.5 21.1001C 56.5 19.900101 55.700001 19.1001 54.5 19.1001L 42.900002 19.1001C 41.700001 19.1001 40.900002 19.900101 40.900002 21.1001L 40.900002 23.1001C 40.900002 24.1001 41.700001 25.1001 42.900002 25.1001ZM 43.900002 19.1L 43.900002 11.5M 53.299999 19.1L 53.299999 11.5M 42.900002 56.5L 54.5 56.5C 55.700001 56.5 56.5 55.700001 56.5 54.5L 56.5 52.5C 56.5 51.299999 55.700001 50.5 54.5 50.5L 42.900002 50.5C 41.700001 50.5 40.900002 51.299999 40.900002 52.5L 40.900002 54.5C 40.900002 55.700001 41.700001 56.5 42.900002 56.5ZM 43.900002 50.5L 43.900002 43.099998M 53.299999 50.5L 53.299999 43.099998M 13.5 56.5L 25.099979 56.5C 26.29998 56.5 27.099979 55.700001 27.099979 54.5L 27.099979 52.5C 27.099979 51.299999 26.29998 50.5 25.099979 50.5L 13.5 50.5C 12.3 50.5 11.5 51.299999 11.5 52.5L 11.5 54.5C 11.5 55.700001 12.5 56.5 13.5 56.5ZM 14.5 50.5L 14.5 43.099998M 24.099979 50.5L 24.099979 43.099998M 10 10M 30.200001 32.700001L 31.6 34.099998M 10 10M 35.200001 38.5L 36.599998 40.099998M 33 23.1001L 35 23.1001M 33 50.5L 35 50.5M 19.400021 30.9L 19.400021 32.900002M 19.400021 38.099998L 19.400021 40.099998M 48.400002 30.9L 48.400002 32.900002M 48.400002 38.099998L 48.400002 40.099998"></path></g></g></g><g id="g-root-tx__1d1r0ao1nza684-stroke" data-item-order="0" transform="translate(663, 291)"></g><g id="g-root-filt_1ha2tds1nz5y4s-stroke" data-item-order="0" transform="translate(603, 363)"><g id="filt_1ha2tds1nz5y4s-stroke" fill="none" stroke-linecap="round" stroke-linejoin="round" stroke-miterlimit="4" stroke="#e0cb15" stroke-width="2"><g><path d="M 23.699959 56.5L 43.700001 56.5M 23.699959 11.5L 43.700001 11.5M 29.70006 18.400101C 29.479139 18.400101 29.300039 18.22102 29.300039 18.000099C 29.300039 17.779181 29.479139 17.6001 29.70006 17.6001M 29.69998 18.400101C 29.920879 18.400101 30.1 18.22102 30.1 18.000099C 30.1 17.779181 29.920879 17.6001 29.69998 17.6001M 37.700001 18.400101C 37.479202 18.400101 37.299999 18.22102 37.299999 18.000099C 37.299999 17.779181 37.479202 17.6001 37.700001 17.6001M 37.700001 18.400101C 37.920799 18.400101 38.099998 18.22102 38.099998 18.000099C 38.099998 17.779181 37.920799 17.6001 37.700001 17.6001M 29.70006 26.400101C 29.479139 26.400101 29.300039 26.22102 29.300039 26.000099C 29.300039 25.779179 29.479139 25.6001 29.70006 25.6001M 29.69998 26.400101C 29.920879 26.400101 30.1 26.22102 30.1 26.000099C 30.1 25.779179 29.920879 25.6001 29.69998 25.6001M 37.700001 26.400101C 37.479202 26.400101 37.299999 26.22102 37.299999 26.000099C 37.299999 25.779179 37.479202 25.6001 37.700001 25.6001M 37.700001 26.400101C 37.920799 26.400101 38.099998 26.22102 38.099998 26.000099C 38.099998 25.779179 37.920799 25.6001 37.700001 25.6001M 29.70006 34.400002C 29.479139 34.400002 29.300039 34.221001 29.300039 34C 29.300039 33.779198 29.479139 33.599998 29.70006 33.599998M 29.69998 34.400002C 29.920879 34.400002 30.1 34.221001 30.1 34C 30.1 33.779198 29.920879 33.599998 29.69998 33.599998M 37.700001 34.400002C 37.479202 34.400002 37.299999 34.221001 37.299999 34C 37.299999 33.779198 37.479202 33.599998 37.700001 33.599998M 37.700001 34.400002C 37.920799 34.400002 38.099998 34.221001 38.099998 34C 38.099998 33.779198 37.920799 33.599998 37.700001 33.599998M 29.70006 42.400002C 29.479139 42.400002 29.300039 42.221001 29.300039 42C 29.300039 41.779198 29.479139 41.599998 29.70006 41.599998M 29.69998 42.400002C 29.920879 42.400002 30.1 42.221001 30.1 42C 30.1 41.779198 29.920879 41.599998 29.69998 41.599998M 37.700001 42.400002C 37.479202 42.400002 37.299999 42.221001 37.299999 42C 37.299999 41.779198 37.479202 41.599998 37.700001 41.599998M 37.700001 42.400002C 37.920799 42.400002 38.099998 42.221001 38.099998 42C 38.099998 41.779198 37.920799 41.599998 37.700001 41.599998M 29.70006 50.400002C 29.479139 50.400002 29.300039 50.221001 29.300039 50C 29.300039 49.779202 29.479139 49.599998 29.70006 49.599998M 29.69998 50.400002C 29.920879 50.400002 30.1 50.221001 30.1 50C 30.1 49.779202 29.920879 49.599998 29.69998 49.599998M 37.700001 50.400002C 37.479202 50.400002 37.299999 50.221001 37.299999 50C 37.299999 49.779202 37.479202 49.599998 37.700001 49.599998M 37.700001 50.400002C 37.920799 50.400002 38.099998 50.221001 38.099998 50C 38.099998 49.779202 37.920799 49.599998 37.700001 49.599998M 10 10M 21.700001 40L 11.5 43.799999M 10 10M 21.700001 27.99996L 11.5 24.199959M 45.299999 34L 56.460999 34M 10 10M 51.5 29L 56.5 34L 51.5 39"></path></g></g></g><g id="g-root-tx__1hhkif41nza5fu-stroke" data-item-order="0" transform="translate(663, 375)"></g><g id="g-root-arro_1uljbr41nz5wju-stroke" data-item-order="0" transform="translate(603, 447)"><g id="arro_1uljbr41nz5wju-stroke" fill="none" stroke-linecap="round" stroke-linejoin="round" stroke-miterlimit="4" stroke="#de8431" stroke-width="2"><g><path d="M 33.9996 23.0941L 33.9996 15.15283M 29.3068 24.1998L 26.3333 20.4516M 38.6932 24.1998L 41.6667 20.4516M 34.0004 44.906L 34.0004 52.8473M 38.6932 43.8003L 41.6667 47.5485M 29.3068 43.8003L 26.3333 47.5485M 32.5117 32.8614L 22.3135 23.6698C 22.0298 23.4426 21.72 23.3984 21.3842 23.5382C 21.0484 23.678 20.8791 23.9319 20.8791 24.2998L 20.8791 30.182L 12.85024 30.182C 12.60186 30.182 12.39814 30.2602 12.23907 30.4184C 12.08 30.5756 12 30.7771 12 31.0227L 12 36.065C 12 36.3097 12.08 36.5111 12.23907 36.6684C 12.39814 36.8257 12.60186 36.9048 12.85024 36.9048L 20.8791 36.9048L 20.8791 42.7869C 20.8791 43.1374 21.0484 43.3913 21.3842 43.5485C 21.721 43.6893 22.0307 43.6359 22.3145 43.3913L 32.5127 34.0939C 32.862 33.7485 32.8579 33.2054 32.5117 32.8614ZM 35.4883 32.8614L 45.6865 23.6698C 45.9702 23.4426 46.28 23.3984 46.6158 23.5382C 46.9516 23.678 47.1209 23.9319 47.1209 24.2998L 47.1209 30.182L 55.1498 30.182C 55.3981 30.182 55.6019 30.2602 55.7609 30.4184C 55.92 30.5756 56 30.7771 56 31.0227L 56 36.065C 56 36.3097 55.92 36.5111 55.7609 36.6684C 55.6019 36.8257 55.3981 36.9048 55.1498 36.9048L 47.1209 36.9048L 47.1209 42.7869C 47.1209 43.1374 46.9516 43.3913 46.6158 43.5485C 46.279 43.6893 45.9693 43.6359 45.6855 43.3913L 35.4873 34.0939C 35.138 33.7485 35.1421 33.2054 35.4883 32.8614Z"></path></g></g></g><g id="g-root-tx__1qd7io01nza4n4-stroke" data-item-order="0" transform="translate(663, 459)"></g></g></g></svg>
