<?xml version="1.0" encoding="utf-8" standalone="yes"?>
<!DOCTYPE svg PUBLIC "-//W3C//DTD SVG 1.1//EN" "http://www.w3.org/Graphics/SVG/1.1/DTD/svg11.dtd">
<svg width="746" height="482" viewBox="0 0 746 482" style="fill:none;stroke:none;fill-rule:evenodd;clip-rule:evenodd;stroke-linecap:round;stroke-linejoin:round;stroke-miterlimit:1.5;" version="1.1" xmlns="http://www.w3.org/2000/svg" xmlns:xlink="http://www.w3.org/1999/xlink"><style class="text-font-style fontImports" data-font-family="Roboto">@import url('https://fonts.googleapis.com/css2?family=Roboto:wght@400;700&amp;display=block');</style><rect id="" x="0" y="0" width="746" height="482" style="fill: #ffffff;"></rect><g id="items" style="isolation: isolate"><g id="blend" style="mix-blend-mode: normal"><g id="g-root-tf_1qf3tj41pwxfk4-fill" data-item-order="-357120" transform="translate(-9, -9)"><g id="tf_1qf3tj41pwxfk4-fill" stroke="none" fill="#ffffff"><g><path d="M 10 10L 754 10L 754 490L 10 490Z"></path></g></g></g><g id="g-root--1.lines_fr_1cy0y801pxbim8-fill" data-item-order="-267255" transform="translate(363, 147)"></g><g id="g-root-1.g-1_fr_142dxz41pxbjey-fill" data-item-order="-267252" transform="translate(351, 123)"><g id="1.g-1_fr_142dxz41pxbjey-fill" stroke="none" fill="url(#gradient-ffed4b-499785973)"><g><path d="M 16 22C 16 25.313709 18.686292 28 22 28C 25.313709 28 28 25.313709 28 22C 28 18.686292 25.313709 16 22 16C 18.686292 16 16 18.686292 16 22"></path></g></g></g><g id="g-root-2.g-2_fr_142dxz41pxbjf0-fill" data-item-order="-267244" transform="translate(315, 171)"><g id="2.g-2_fr_142dxz41pxbjf0-fill" stroke="none" fill="url(#gradient-fdac61-172712277)"><g><path d="M 52 22C 52 25.3137 54.6863 28 58 28C 61.3137 28 64 25.3137 64 22C 64 18.6863 61.3137 16 58 16C 54.6863 16 52 18.6863 52 22Z"></path></g></g></g><g id="g-root-3.g-3_fr_zn6wxs1pxbh1i-fill" data-item-order="-267236" transform="translate(351, 219)"><g id="3.g-3_fr_zn6wxs1pxbh1i-fill" stroke="none" fill="url(#gradient-fe8884-413551779)"><g><path d="M 16 22C 16 25.313709 18.686292 28 22 28C 25.313709 28 28 25.313709 28 22C 28 18.686292 25.313709 16 22 16C 18.686292 16 16 18.686292 16 22"></path></g></g></g><g id="g-root-4.g-4_fr_zn6wxs1pxbh1k-fill" data-item-order="-267228" transform="translate(315, 267)"><g id="4.g-4_fr_zn6wxs1pxbh1k-fill" stroke="none" fill="url(#gradient-fb85cc-431468215)"><g><path d="M 52 22C 52 25.3137 54.6863 28 58 28C 61.3137 28 64 25.3137 64 22C 64 18.6863 61.3137 16 58 16C 54.6863 16 52 18.6863 52 22Z"></path></g></g></g><g id="g-root-5.g-5_fr_v7detc1pxbhtu-fill" data-item-order="-267220" transform="translate(351, 315)"><g id="5.g-5_fr_v7detc1pxbhtu-fill" stroke="none" fill="url(#gradient-d98afd-525750490)"><g><path d="M 16 22C 16 25.313709 18.686292 28 22 28C 25.313709 28 28 25.313709 28 22C 28 18.686292 25.313709 16 22 16C 18.686292 16 16 18.686292 16 22"></path></g></g></g><g id="g-root-6.g-6_fr_v7detc1pxbhtw-fill" data-item-order="-267212" transform="translate(315, 363)"><defs><linearGradient id="gradient-ffed4b-499785973" x2="0" y2="1"><stop offset="0" stop-color="#fff282"></stop><stop offset="1" stop-color="#ffe714"></stop></linearGradient><linearGradient id="gradient-fdac61-172712277" x2="0" y2="1"><stop offset="0" stop-color="#ffc188"></stop><stop offset="1" stop-color="#fa963a"></stop></linearGradient><linearGradient id="gradient-fe8884-413551779" x2="0" y2="1"><stop offset="0" stop-color="#ffa6a3"></stop><stop offset="1" stop-color="#fd6a65"></stop></linearGradient><linearGradient id="gradient-fb85cc-431468215" x2="0" y2="1"><stop offset="0" stop-color="#ffa1da"></stop><stop offset="1" stop-color="#f669be"></stop></linearGradient><linearGradient id="gradient-d98afd-525750490" x2="0" y2="1"><stop offset="0" stop-color="#e4a9ff"></stop><stop offset="1" stop-color="#cd6afb"></stop></linearGradient><linearGradient id="gradient-a28bff-80143514" x2="0" y2="1"><stop offset="0" stop-color="#bcabff"></stop><stop offset="1" stop-color="#886aff"></stop></linearGradient></defs><g id="6.g-6_fr_v7detc1pxbhtw-fill" stroke="none" fill="url(#gradient-a28bff-80143514)"><g><path d="M 52 22C 52 25.3137 54.6863 28 58 28C 61.3137 28 64 25.3137 64 22C 64 18.6863 61.3137 16 58 16C 54.6863 16 52 18.6863 52 22Z"></path></g></g></g><g id="g-root-tx__hvwwg01pxbjew-fill" data-item-order="0" transform="translate(483, 147)"><g id="tx__hvwwg01pxbjew-fill" stroke="none" fill="#484848"><g><text style="font: 15px Roboto, sans-serif; white-space: pre;" font-size="15px" font-family="Roboto, sans-serif"><tspan x="12" y="30.5" dominant-baseline="ideographic">태양 전지 발명</tspan></text></g></g></g><g id="g-root-1_1um6og01pwuo7d-fill" data-item-order="0" transform="translate(255, 159)"></g><g id="g-root-tx__4gpmps1pwunls-fill" data-item-order="0" transform="translate(15, 195)"><g id="tx__4gpmps1pwunls-fill" stroke="none" fill="#484848"><g><text style="font: 15px Roboto, sans-serif; white-space: pre;" font-size="15px" font-family="Roboto, sans-serif"><tspan x="137.73" y="30.5" dominant-baseline="ideographic">전자 현미경 개발</tspan></text></g></g></g><g id="g-root-tx_1931_8wj4u81pwumtj-fill" data-item-order="0" transform="translate(15, 159)"><g id="tx_1931_8wj4u81pwumtj-fill" stroke="none" fill="#de8431"><g><text style="font: bold 20px Roboto, sans-serif; white-space: pre;" font-weight="bold" font-size="20px" font-family="Roboto, sans-serif"><tspan x="190.09" y="33.5" dominant-baseline="ideographic">1931</tspan></text></g></g></g><g id="g-root-disc_v306dc1pww1sa-fill" data-item-order="0" transform="translate(423, 207)"></g><g id="g-root-tx_1947_1hjgta81pwuo00-fill" data-item-order="0" transform="translate(483, 207)"><g id="tx_1947_1hjgta81pwuo00-fill" stroke="none" fill="#e55753"><g><text style="font: bold 20px Roboto, sans-serif; white-space: pre;" font-weight="bold" font-size="20px" font-family="Roboto, sans-serif"><tspan x="12" y="33.5" dominant-baseline="ideographic">1947</tspan></text></g></g></g><g id="g-root-tx_mri_18fpmww1pwxgjq-fill" data-item-order="0" transform="translate(15, 387)"><g id="tx_mri_18fpmww1pwxgjq-fill" stroke="none" fill="#484848"><g><text style="font: 15px Roboto, sans-serif; white-space: pre;" font-size="15px" font-family="Roboto, sans-serif"><tspan x="137.26" y="30.5" dominant-baseline="ideographic">MRI 스캐너 도입</tspan></text></g></g></g><g id="g-root-stop_1qa40u81pww16s-fill" data-item-order="0" transform="translate(255, 255)"></g><g id="g-root-tx__13yn6m81pww0zl-fill" data-item-order="0" transform="translate(483, 243)"><g id="tx__13yn6m81pww0zl-fill" stroke="none" fill="#484848"><g><text style="font: 15px Roboto, sans-serif; white-space: pre;" font-size="15px" font-family="Roboto, sans-serif"><tspan x="12" y="30.5" dominant-baseline="ideographic">트랜지스터 발명</tspan></text></g></g></g><g id="g-root-tx_1890_mbqekg1pxbimn-fill" data-item-order="0" transform="translate(483, 111)"><g id="tx_1890_mbqekg1pxbimn-fill" stroke="none" fill="#e0cb15"><g><text style="font: bold 20px Roboto, sans-serif; white-space: pre;" font-weight="bold" font-size="20px" font-family="Roboto, sans-serif"><tspan x="12" y="33.5" dominant-baseline="ideographic">1890</tspan></text></g></g></g><g id="g-root-tx__1qa40u81pww16r-fill" data-item-order="0" transform="translate(15, 291)"><g id="tx__1qa40u81pww16r-fill" stroke="none" fill="#484848"><g><text style="font: 15px Roboto, sans-serif; white-space: pre;" font-size="15px" font-family="Roboto, sans-serif"><tspan x="154.42" y="30.5" dominant-baseline="ideographic">원자시계 도입</tspan></text></g></g></g><g id="g-root-batt_hvwwg01pxbjex-fill" data-item-order="0" transform="translate(423, 111)"></g><g id="g-root-qual_1d0ixq81pww1s4-fill" data-item-order="0" transform="translate(423, 303)"></g><g id="g-root-tx_1960_1hgcfuo1pww0zu-fill" data-item-order="0" transform="translate(483, 303)"><g id="tx_1960_1hgcfuo1pww0zu-fill" stroke="none" fill="#ba5de5"><g><text style="font: bold 20px Roboto, sans-serif; white-space: pre;" font-weight="bold" font-size="20px" font-family="Roboto, sans-serif"><tspan x="12" y="33.5" dominant-baseline="ideographic">1960</tspan></text></g></g></g><g id="g-root-tx_1977_1cvj51c1pwxfrh-fill" data-item-order="0" transform="translate(15, 351)"><g id="tx_1977_1cvj51c1pwxfrh-fill" stroke="none" fill="#7f64ea"><g><text style="font: bold 20px Roboto, sans-serif; white-space: pre;" font-weight="bold" font-size="20px" font-family="Roboto, sans-serif"><tspan x="190.09" y="33.5" dominant-baseline="ideographic">1977</tspan></text></g></g></g><g id="g-root-mri_18fpmww1pwxgjr-fill" data-item-order="0" transform="translate(255, 351)"></g><g id="g-root-tx__1hgcfuo1pww0zv-fill" data-item-order="0" transform="translate(483, 339)"><g id="tx__1hgcfuo1pww0zv-fill" stroke="none" fill="#484848"><g><text style="font: 15px Roboto, sans-serif; white-space: pre;" font-size="15px" font-family="Roboto, sans-serif"><tspan x="12" y="30.5" dominant-baseline="ideographic">레이저 발명</tspan></text></g></g></g><g id="g-root-tx_1955_1upb1vk1pww3ka-fill" data-item-order="0" transform="translate(15, 255)"><g id="tx_1955_1upb1vk1pww3ka-fill" stroke="none" fill="#de58a9"><g><text style="font: bold 20px Roboto, sans-serif; white-space: pre;" font-weight="bold" font-size="20px" font-family="Roboto, sans-serif"><tspan x="190.09" y="33.5" dominant-baseline="ideographic">1955</tspan></text></g></g></g><g id="g-root-tf_1qf3tj41pwxfk4-stroke" data-item-order="-357120" transform="translate(-9, -9)"></g><g id="g-root--1.lines_fr_1cy0y801pxbim8-stroke" data-item-order="-267255" transform="translate(363, 147)"><g id="-1.lines_fr_1cy0y801pxbim8-stroke" fill="none" stroke-linecap="round" stroke-linejoin="round" stroke-miterlimit="4" stroke="#484848" stroke-width="2"><g><path d="M 10 10L 10 34M 10 58L 10 82M 10 106L 10 130M 10 154L 10 178M 10 202L 10 226"></path></g></g></g><g id="g-root-1.g-1_fr_142dxz41pxbjey-stroke" data-item-order="-267252" transform="translate(351, 123)"><g id="1.g-1_fr_142dxz41pxbjey-stroke" fill="none" stroke-linecap="round" stroke-linejoin="round" stroke-miterlimit="4" stroke="#484848" stroke-width="2"><g><path d="M 16 22C 16 25.313709 18.686292 28 22 28C 25.313709 28 28 25.313709 28 22C 28 18.686292 25.313709 16 22 16C 18.686292 16 16 18.686292 16 22"></path></g></g><g id="1.g-1_fr_142dxz41pxbjey-stroke" fill="none" stroke-linecap="round" stroke-linejoin="round" stroke-miterlimit="4" stroke="#484848" stroke-width="2"><g><path d="M 10 22C 10 28.627417 15.372583 34 22 34C 28.627417 34 34 28.627417 34 22C 34 15.372583 28.627417 10 22 10C 15.372583 10 10 15.372583 10 22M 34 22L 70 22"></path></g></g></g><g id="g-root-2.g-2_fr_142dxz41pxbjf0-stroke" data-item-order="-267244" transform="translate(315, 171)"><g id="2.g-2_fr_142dxz41pxbjf0-stroke" fill="none" stroke-linecap="round" stroke-linejoin="round" stroke-miterlimit="4" stroke="#484848" stroke-width="2"><g><path d="M 52 22C 52 25.3137 54.6863 28 58 28C 61.3137 28 64 25.3137 64 22C 64 18.6863 61.3137 16 58 16C 54.6863 16 52 18.6863 52 22ZM 46 22C 46 28.6274 51.3726 34 58 34C 64.6274 34 70 28.6274 70 22C 70 15.3726 64.6274 10 58 10C 51.3726 10 46 15.3726 46 22ZM 46 22L 10 22"></path></g></g></g><g id="g-root-3.g-3_fr_zn6wxs1pxbh1i-stroke" data-item-order="-267236" transform="translate(351, 219)"><g id="3.g-3_fr_zn6wxs1pxbh1i-stroke" fill="none" stroke-linecap="round" stroke-linejoin="round" stroke-miterlimit="4" stroke="#484848" stroke-width="2"><g><path d="M 16 22C 16 25.313709 18.686292 28 22 28C 25.313709 28 28 25.313709 28 22C 28 18.686292 25.313709 16 22 16C 18.686292 16 16 18.686292 16 22"></path></g></g><g id="3.g-3_fr_zn6wxs1pxbh1i-stroke" fill="none" stroke-linecap="round" stroke-linejoin="round" stroke-miterlimit="4" stroke="#484848" stroke-width="2"><g><path d="M 10 22C 10 28.627417 15.372583 34 22 34C 28.627417 34 34 28.627417 34 22C 34 15.372583 28.627417 10 22 10C 15.372583 10 10 15.372583 10 22M 34 22L 70 22"></path></g></g></g><g id="g-root-4.g-4_fr_zn6wxs1pxbh1k-stroke" data-item-order="-267228" transform="translate(315, 267)"><g id="4.g-4_fr_zn6wxs1pxbh1k-stroke" fill="none" stroke-linecap="round" stroke-linejoin="round" stroke-miterlimit="4" stroke="#484848" stroke-width="2"><g><path d="M 52 22C 52 25.3137 54.6863 28 58 28C 61.3137 28 64 25.3137 64 22C 64 18.6863 61.3137 16 58 16C 54.6863 16 52 18.6863 52 22ZM 46 22C 46 28.6274 51.3726 34 58 34C 64.6274 34 70 28.6274 70 22C 70 15.3726 64.6274 10 58 10C 51.3726 10 46 15.3726 46 22ZM 46 22L 10 22"></path></g></g></g><g id="g-root-5.g-5_fr_v7detc1pxbhtu-stroke" data-item-order="-267220" transform="translate(351, 315)"><g id="5.g-5_fr_v7detc1pxbhtu-stroke" fill="none" stroke-linecap="round" stroke-linejoin="round" stroke-miterlimit="4" stroke="#484848" stroke-width="2"><g><path d="M 16 22C 16 25.313709 18.686292 28 22 28C 25.313709 28 28 25.313709 28 22C 28 18.686292 25.313709 16 22 16C 18.686292 16 16 18.686292 16 22"></path></g></g><g id="5.g-5_fr_v7detc1pxbhtu-stroke" fill="none" stroke-linecap="round" stroke-linejoin="round" stroke-miterlimit="4" stroke="#484848" stroke-width="2"><g><path d="M 10 22C 10 28.627417 15.372583 34 22 34C 28.627417 34 34 28.627417 34 22C 34 15.372583 28.627417 10 22 10C 15.372583 10 10 15.372583 10 22M 34 22L 70 22"></path></g></g></g><g id="g-root-6.g-6_fr_v7detc1pxbhtw-stroke" data-item-order="-267212" transform="translate(315, 363)"><g id="6.g-6_fr_v7detc1pxbhtw-stroke" fill="none" stroke-linecap="round" stroke-linejoin="round" stroke-miterlimit="4" stroke="#484848" stroke-width="2"><g><path d="M 52 22C 52 25.3137 54.6863 28 58 28C 61.3137 28 64 25.3137 64 22C 64 18.6863 61.3137 16 58 16C 54.6863 16 52 18.6863 52 22ZM 46 22C 46 28.6274 51.3726 34 58 34C 64.6274 34 70 28.6274 70 22C 70 15.3726 64.6274 10 58 10C 51.3726 10 46 15.3726 46 22ZM 46 22L 10 22"></path></g></g></g><g id="g-root-tx__hvwwg01pxbjew-stroke" data-item-order="0" transform="translate(483, 147)"></g><g id="g-root-1_1um6og01pwuo7d-stroke" data-item-order="0" transform="translate(255, 159)"><g id="1_1um6og01pwuo7d-stroke" fill="none" stroke-linecap="round" stroke-linejoin="round" stroke-miterlimit="4" stroke="#484848" stroke-width="2"><g><path d="M 10 10M 43.752998 19.4902L 46.4604 15.171101L 40.798798 11.62207L 38.079597 15.9599M 10 10M 29.869141 30.257799L 27.456381 34.1068L 32.029602 36.9734L 34.4496 33.112801M 10 10M 25.93848 27.76368L 38.288601 35.590401M 48.640999 44.7616C 50.1894 42.535999 51.097401 39.831398 51.097401 36.9146C 51.097401 31.433201 47.891201 26.700821 43.251999 24.49024M 35.993202 14.61474L 27.22468 28.60268L 36.865997 34.6464L 45.634602 20.658539L 35.993202 14.61474ZM 49.3792 44.761799L 49.3792 56.1964L 18.1001 56.1964L 18.1001 54.322201C 18.1001 52.112999 19.890961 50.322201 22.1001 50.322201L 36.530399 50.322201L 36.530399 48.761799C 36.530399 46.552601 38.321198 44.761799 40.530399 44.761799L 49.3792 44.761799ZM 43.1618 50.478802C 42.835201 50.478802 42.5704 50.214001 42.5704 49.887402C 42.5704 49.560799 42.835201 49.295799 43.1618 49.295799M 43.161999 50.478802C 43.488602 50.478802 43.753399 50.214001 43.753399 49.887402C 43.753399 49.560799 43.488602 49.295799 43.161999 49.295799M 39.5938 30.262199C 39.841999 30.262199 40.4772 30.287201 40.7178 30.3346C 43.456799 30.874599 45.6348 34.332802 45.6348 37.1576C 45.6348 40.230801 43.072601 44.7612 39.324799 44.7612L 18.03174 44.7616"></path></g></g></g><g id="g-root-tx__4gpmps1pwunls-stroke" data-item-order="0" transform="translate(15, 195)"></g><g id="g-root-tx_1931_8wj4u81pwumtj-stroke" data-item-order="0" transform="translate(15, 159)"></g><g id="g-root-disc_v306dc1pww1sa-stroke" data-item-order="0" transform="translate(423, 207)"><g id="disc_v306dc1pww1sa-stroke" fill="none" stroke-linecap="round" stroke-linejoin="round" stroke-miterlimit="4" stroke="#484848" stroke-width="2"><g><path d="M 40.711998 47.515598C 35.165001 49.254398 28.864201 47.926201 24.468979 43.530998C 20.152359 39.214401 18.794041 33.059601 20.394039 27.5863M 10 10M 46.629002 31.5422L 54.9356 23.235401M 10 10M 36.458199 21.371159L 44.764999 13.06438M 10 10M 13.26282 54.7374L 24.469261 43.530998M 12.63684 12.63696L 55.362999 55.363201M 22.657841 22.532841L 30.138599 15.052L 52.948002 37.861198L 45.466999 45.341999"></path></g></g></g><g id="g-root-tx_1947_1hjgta81pwuo00-stroke" data-item-order="0" transform="translate(483, 207)"></g><g id="g-root-tx_mri_18fpmww1pwxgjq-stroke" data-item-order="0" transform="translate(15, 387)"></g><g id="g-root-stop_1qa40u81pww16s-stroke" data-item-order="0" transform="translate(255, 255)"><g id="stop_1qa40u81pww16s-stroke" fill="none" stroke-linecap="round" stroke-linejoin="round" stroke-miterlimit="4" stroke="#484848" stroke-width="2"><g><path d="M 31.049999 11.006001L 35.049999 11.006001M 33.049999 11.006001L 33.049999 17.006001M 49.049999 17.006001L 52.049999 20.006001M 50.549999 18.506001L 46.683998 22.374001M 19.049999 37.006001L 23.049999 37.006001M 23.049999 27.006001L 26.049999 30.006001M 23.049999 47.006001L 26.049999 44.006001M 47.049999 37.006001L 43.049999 37.006001M 33.049999 51.006001L 33.049999 47.006001M 33.049999 23.006001L 33.049999 27.006001M 43.049999 47.006001L 40.049999 44.006001M 43.049999 27.006001L 40.049999 30.006001M 13.05 37.006001C 13.05 48.051697 22.004305 57.006001 33.050003 57.006001C 44.095695 57.006001 53.049999 48.051697 53.049999 37.006001C 53.049999 25.960304 44.095695 17.006001 33.050003 17.006001C 22.004305 17.006001 13.05 25.960304 13.05 37.006001Z"></path></g></g></g><g id="g-root-tx__13yn6m81pww0zl-stroke" data-item-order="0" transform="translate(483, 243)"></g><g id="g-root-tx_1890_mbqekg1pxbimn-stroke" data-item-order="0" transform="translate(483, 111)"></g><g id="g-root-tx__1qa40u81pww16r-stroke" data-item-order="0" transform="translate(15, 291)"></g><g id="g-root-batt_hvwwg01pxbjex-stroke" data-item-order="0" transform="translate(423, 111)"><g id="batt_hvwwg01pxbjex-stroke" fill="none" stroke-linecap="round" stroke-linejoin="round" stroke-miterlimit="4" stroke="#484848" stroke-width="2"><g><path d="M 47.534401 38.060402L 47.534401 50.200001C 47.534401 51.799999 46.134399 53.200001 44.534401 53.200001L 37.734398 53.200001M 30.1714 35.448997C 29.971399 36.049 29.97142 36.649002 30.371401 37.249001C 30.7714 37.848999 31.371401 38.049 31.971399 38.049L 54.5714 38.049C 55.171398 38.049 55.7714 37.649002 56.171398 37.249001C 56.5714 36.649002 56.5714 36.049 56.371399 35.448997L 52.7714 24.449081C 52.5714 23.64908 51.7714 23.04908 50.971401 23.04908L 35.7714 23.04908C 34.971397 23.04908 34.171402 23.64908 33.971397 24.449081L 30.1714 35.448997ZM 43.371399 23.0564L 43.371399 38.0494M 31.906 30.448999L 54.729198 30.448999M 28.5 46.5L 28.5 45.5C 28.5 44.299999 27.700001 43.5 26.5 43.5L 13.5 43.5C 12.3 43.5 11.5 44.299999 11.5 45.5L 11.5 54.5C 11.5 55.700001 12.3 56.5 13.5 56.5L 26.5 56.5C 27.700001 56.5 28.5 55.700001 28.5 54.5L 28.5 53.5L 29.9 53.5C 31.1 53.5 31.9 52.700001 31.9 51.5L 31.9 48.5C 31.9 47.299999 31.1 46.5 29.9 46.5L 28.5 46.5ZM 25.099979 27.9004C 21.499981 29.100401 18.099979 26.500401 18.099979 23.100399C 18.099979 20.3004 20.29998 17.9004 23.29998 17.9004C 25.29998 17.9004 27.100019 19.100399 27.900021 20.700401M 23.099979 11.5L 23.099979 13.5M 10 10M 14.900021 14.7002L 16.29998 16.100201M 11.5 22.9004L 13.5 22.9004M 10 10M 14.900021 31.100201L 16.29998 29.700199M 23.099979 34.300201L 23.099979 32.300201M 10 10M 31.1 14.7002L 29.699961 16.100201"></path></g></g></g><g id="g-root-qual_1d0ixq81pww1s4-stroke" data-item-order="0" transform="translate(423, 303)"><g id="qual_1d0ixq81pww1s4-stroke" fill="none" stroke-linecap="round" stroke-linejoin="round" stroke-miterlimit="4" stroke="#484848" stroke-width="2"><g><path d="M 54 31C 54 19.954306 45.045696 11.000001 34 11.000001C 22.954306 11.000001 14 19.954306 14 31C 14 42.045696 22.954306 51 34 51C 36.092659 50.986809 38.170639 50.649475 40.16 50L 42.740002 56.34C 42.896141 56.720207 43.269024 56.966152 43.68 56.959999L 46.52 56.959999C 46.849979 56.960739 47.158176 56.795368 47.34 56.52C 47.489677 56.224541 47.489677 55.875454 47.339996 55.579998L 44.259998 48.060001C 50.268211 44.469444 53.962223 37.999233 54 31ZM 42.299999 43L 39.260002 35.540001C 39.103859 35.15979 38.730972 34.913849 38.32 34.919998L 35.48 34.919998C 35.150021 34.919258 34.841827 35.084633 34.66 35.360001C 34.477962 35.639206 34.440777 35.988743 34.559998 36.299995L 38.220001 45.220001C 36.866356 45.712345 35.440201 45.975948 34 46C 25.994686 45.717674 19.730221 39.005745 20 31C 19.730221 22.994255 25.994686 16.282326 34 16C 42.005314 16.282326 48.269779 22.994255 48 31C 48.044868 35.685928 45.945393 40.135338 42.299999 43.080002Z"></path></g></g></g><g id="g-root-tx_1960_1hgcfuo1pww0zu-stroke" data-item-order="0" transform="translate(483, 303)"></g><g id="g-root-tx_1977_1cvj51c1pwxfrh-stroke" data-item-order="0" transform="translate(15, 351)"></g><g id="g-root-mri_18fpmww1pwxgjr-stroke" data-item-order="0" transform="translate(255, 351)"><g id="mri_18fpmww1pwxgjr-stroke" fill="none" stroke-linecap="round" stroke-linejoin="round" stroke-miterlimit="4" stroke="#484848" stroke-width="2"><g><path d="M 46.599998 50.459999C 46.859646 50.80619 47 51.227261 47 51.66L 47 53C 47 54.104568 46.104568 55 45 55L 23 55C 21.895432 55 21 54.104568 21 53L 21 51.66C 21 51.227261 21.140356 50.80619 21.4 50.459999L 26.4 43.799999C 26.777708 43.296387 27.370485 43 28 43L 40 43C 40.629517 43 41.22229 43.296387 41.599998 43.799999ZM 57 57L 57 19C 57 16.790861 55.209141 15 53 15C 49.459999 15 44.860001 15 44.799999 15C 41.853928 12.318231 37.982185 10.884253 34 11C 30.025696 10.895727 26.164337 12.328513 23.219999 15L 15 15C 12.790861 15 11 16.790861 11 19L 11 57M 40.220001 18.18L 38.860001 24.279999M 29.120001 24.16L 27.799999 18.220001M 24.700001 39.580002C 23.048939 36.919689 22.619226 33.678646 23.52 30.68C 24.589031 27.264153 27.264153 24.589031 30.68 23.52C 34.981773 22.198895 39.652157 23.678284 42.408768 27.235203C 45.165382 30.792122 45.432663 35.683914 43.079998 39.519997M 20.540001 44.400002C 15.148899 37.411949 16.002119 27.460569 22.504086 21.492218C 29.006054 15.523867 38.993946 15.523867 45.495914 21.492218C 51.997883 27.460569 52.851101 37.411949 47.459999 44.400002M 17 19.5C 17.276142 19.5 17.5 19.723858 17.5 20M 16.5 20C 16.5 19.723858 16.723858 19.5 17 19.5M 17 20.5C 16.723858 20.5 16.5 20.276142 16.5 20M 17.5 20C 17.5 20.276142 17.276142 20.5 17 20.5M 51 19.5C 51.276142 19.5 51.5 19.723858 51.5 20M 50.5 20C 50.5 19.723858 50.723858 19.5 51 19.5M 51 20.5C 50.723858 20.5 50.5 20.276142 50.5 20M 51.5 20C 51.5 20.276142 51.276142 20.5 51 20.5M 25 55L 25 57M 43 55L 43 57"></path></g></g></g><g id="g-root-tx__1hgcfuo1pww0zv-stroke" data-item-order="0" transform="translate(483, 339)"></g><g id="g-root-tx__mbqekg1pxbimm-stroke" data-item-order="0" transform="translate(267, 39)"></g><g id="g-root-tx_1955_1upb1vk1pww3ka-stroke" data-item-order="0" transform="translate(15, 255)"></g></g></g></svg>
